<?xml version="1.0" encoding="UTF-8"?>
<svg xmlns="http://www.w3.org/2000/svg" xmlns:xlink="http://www.w3.org/1999/xlink" width="323pt" height="177pt" viewBox="0 0 323 177" version="1.1">
<defs>
<clipPath id="clip1">
  <path d="M 0 0.566406 L 103 0.566406 L 103 127 L 0 127 Z "/>
</clipPath>
<clipPath id="clip2">
  <path d="M 309 113 L 322.925781 113 L 322.925781 130 L 309 130 Z "/>
</clipPath>
</defs>
<g id="surface1">
<g clip-path="url(#clip1)" clip-rule="nonzero">
<path style="fill:none;stroke-width:10;stroke-linecap:round;stroke-linejoin:round;stroke:rgb(30.917358%,29.660034%,29.972839%);stroke-opacity:1;stroke-miterlimit:4;" d="M 709.53125 507.421875 C 349.53125 862.421875 912.890625 1091.757812 822.890625 1171.757812 C 785.742188 1217.460938 427.851562 1118.554688 387.03125 1142.03125 C 332.773438 1173.28125 630.273438 1267.265625 532.773438 1332.03125 C 500.703125 1353.359375 474.0625 1239.648438 431.25 1226.40625 C 374.6875 1208.945312 11.523438 1335.507812 4.609375 1360.429688 C -3.476562 1389.53125 113.945312 1453.554688 158.75 1467.578125 C 169.609375 1470.9375 215.703125 1480.390625 186.367188 1493.515625 C 155.078125 1507.460938 182.1875 1741.445312 215.429688 1757.734375 C 245.507812 1772.460938 593.007812 1713.828125 611.328125 1683.359375 C 639.726562 1636.171875 617.382812 1440.195312 587.890625 1421.132812 C 559.570312 1402.8125 259.335938 1481.71875 223.4375 1501.601562 C 196.484375 1516.601562 251.523438 1707.03125 269.023438 1720.46875 C 288.203125 1735.195312 549.453125 1678.007812 567.1875 1648.28125 C 571.835938 1640.429688 576.914062 1478.515625 534.53125 1467.03125 M 340.273438 1283.28125 C 340.273438 1260.976562 402.851562 1251.796875 417.773438 1262.695312 C 434.023438 1274.492188 477.1875 1331.757812 470.273438 1344.257812 C 460.234375 1362.5 411.445312 1375.664062 389.335938 1369.882812 C 370.273438 1364.882812 328.789062 1289.726562 309.6875 1283.945312 C 288.085938 1277.382812 69.335938 1363.75 65.078125 1377.460938 C 63.125 1383.789062 153.359375 1443.945312 180.273438 1449.257812 C 209.453125 1454.960938 468.242188 1388.945312 534.53125 1368.28125 C 630.820312 1338.28125 745.976562 1128.710938 792.03125 1264.921875 C 804.804688 1309.101562 842.03125 1399.921875 887.03125 1349.921875 C 921.523438 1390.585938 1066.757812 1325.15625 1012.5 1254.960938 C 969.414062 1202.304688 857.695312 1296.445312 892.8125 1339.492188 C 907.1875 1355.46875 972.578125 1347.460938 964.609375 1329.921875 C 956.640625 1312.382812 934.296875 1291.640625 927.929688 1288.476562 C 921.523438 1285.273438 905.585938 1308.085938 905.585938 1317.1875 " transform="matrix(0.1,0,0,-0.1,0,177)"/>
</g>
<path style=" stroke:none;fill-rule:nonzero;fill:rgb(30.917358%,29.660034%,29.972839%);fill-opacity:1;" d="M 103.746094 103.953125 C 93.921875 103.953125 85.925781 111.945312 85.925781 121.769531 C 85.925781 131.597656 93.921875 139.589844 103.746094 139.589844 C 113.574219 139.589844 121.566406 131.597656 121.566406 121.769531 C 121.566406 111.945312 113.574219 103.953125 103.746094 103.953125 Z M 103.746094 141.089844 C 93.09375 141.089844 84.425781 132.421875 84.425781 121.769531 C 84.425781 111.117188 93.09375 102.453125 103.746094 102.453125 C 114.398438 102.453125 123.066406 111.117188 123.066406 121.769531 C 123.066406 132.421875 114.398438 141.089844 103.746094 141.089844 "/>
<path style=" stroke:none;fill-rule:nonzero;fill:rgb(94.345093%,27.69928%,11.306763%);fill-opacity:1;" d="M 103.746094 100.363281 C 91.945312 100.363281 82.339844 109.964844 82.339844 121.769531 C 82.339844 133.570312 91.945312 143.175781 103.746094 143.175781 C 115.550781 143.175781 125.152344 133.570312 125.152344 121.769531 C 125.152344 109.964844 115.550781 100.363281 103.746094 100.363281 Z M 103.746094 143.976562 C 91.503906 143.976562 81.542969 134.015625 81.542969 121.769531 C 81.542969 109.523438 91.503906 99.5625 103.746094 99.5625 C 115.992188 99.5625 125.953125 109.523438 125.953125 121.769531 C 125.953125 134.015625 115.992188 143.976562 103.746094 143.976562 "/>
<path style=" stroke:none;fill-rule:nonzero;fill:rgb(96.82312%,57.141113%,6.352234%);fill-opacity:1;" d="M 103.746094 97.710938 C 90.480469 97.710938 79.6875 108.503906 79.6875 121.769531 C 79.6875 135.039062 90.480469 145.832031 103.746094 145.832031 C 117.015625 145.832031 127.808594 135.039062 127.808594 121.769531 C 127.808594 108.503906 117.015625 97.710938 103.746094 97.710938 Z M 103.746094 149.832031 C 88.277344 149.832031 75.6875 137.242188 75.6875 121.769531 C 75.6875 106.296875 88.277344 93.710938 103.746094 93.710938 C 119.21875 93.710938 131.808594 106.296875 131.808594 121.769531 C 131.808594 137.242188 119.21875 149.832031 103.746094 149.832031 "/>
<path style=" stroke:none;fill-rule:nonzero;fill:rgb(69.895935%,19.998169%,7.913208%);fill-opacity:1;" d="M 104.800781 87.5625 C 87.324219 87.5625 73.105469 101.78125 73.105469 119.257812 C 73.105469 136.734375 87.324219 150.953125 104.800781 150.953125 C 122.277344 150.953125 136.492188 136.734375 136.492188 119.257812 C 136.492188 101.78125 122.277344 87.5625 104.800781 87.5625 Z M 104.800781 152.453125 C 86.496094 152.453125 71.605469 137.5625 71.605469 119.257812 C 71.605469 100.953125 86.496094 86.0625 104.800781 86.0625 C 123.105469 86.0625 137.992188 100.953125 137.992188 119.257812 C 137.992188 137.5625 123.105469 152.453125 104.800781 152.453125 "/>
<path style=" stroke:none;fill-rule:nonzero;fill:rgb(39.802551%,50.312805%,55.569458%);fill-opacity:1;" d="M 105.246094 84.34375 C 86.214844 84.34375 70.730469 99.824219 70.730469 118.855469 C 70.730469 137.890625 86.214844 153.375 105.246094 153.375 C 124.277344 153.375 139.761719 137.890625 139.761719 118.855469 C 139.761719 99.824219 124.277344 84.34375 105.246094 84.34375 Z M 105.246094 154.875 C 85.386719 154.875 69.230469 138.71875 69.230469 118.855469 C 69.230469 98.996094 85.386719 82.84375 105.246094 82.84375 C 125.105469 82.84375 141.261719 98.996094 141.261719 118.855469 C 141.261719 138.71875 125.105469 154.875 105.246094 154.875 "/>
<path style=" stroke:none;fill-rule:nonzero;fill:rgb(97.528076%,65.519714%,4.942322%);fill-opacity:1;" d="M 100.671875 78.289062 C 77.40625 78.289062 58.480469 97.214844 58.480469 120.476562 C 58.480469 143.738281 77.40625 162.664062 100.671875 162.664062 C 123.933594 162.664062 142.855469 143.738281 142.855469 120.476562 C 142.855469 97.214844 123.933594 78.289062 100.671875 78.289062 Z M 100.671875 164.664062 C 76.304688 164.664062 56.480469 144.839844 56.480469 120.476562 C 56.480469 96.109375 76.304688 76.289062 100.671875 76.289062 C 125.035156 76.289062 144.855469 96.109375 144.855469 120.476562 C 144.855469 144.839844 125.035156 164.664062 100.671875 164.664062 "/>
<path style=" stroke:none;fill-rule:nonzero;fill:rgb(94.126892%,22.25647%,48.10791%);fill-opacity:1;" d="M 108.546875 89.890625 C 84.753906 89.890625 65.394531 109.246094 65.394531 133.039062 C 65.394531 156.839844 84.753906 176.199219 108.546875 176.199219 C 132.34375 176.199219 151.703125 156.839844 151.703125 133.039062 C 151.703125 109.246094 132.34375 89.890625 108.546875 89.890625 Z M 108.546875 177 C 84.3125 177 64.59375 157.28125 64.59375 133.039062 C 64.59375 108.808594 84.3125 89.089844 108.546875 89.089844 C 132.785156 89.089844 152.5 108.808594 152.5 133.039062 C 152.5 157.28125 132.785156 177 108.546875 177 "/>
<path style=" stroke:none;fill-rule:nonzero;fill:rgb(95.062256%,36.221313%,9.872437%);fill-opacity:1;" d="M 112.109375 66.703125 C 84.929688 66.703125 62.820312 88.363281 62.820312 114.988281 C 62.820312 141.621094 84.929688 163.285156 112.109375 163.285156 C 139.289062 163.285156 161.402344 141.621094 161.402344 114.988281 C 161.402344 88.363281 139.289062 66.703125 112.109375 66.703125 Z M 112.109375 164.089844 C 84.488281 164.089844 62.019531 142.0625 62.019531 114.988281 C 62.019531 87.921875 84.488281 65.902344 112.109375 65.902344 C 139.730469 65.902344 162.203125 87.921875 162.203125 114.988281 C 162.203125 142.0625 139.730469 164.089844 112.109375 164.089844 "/>
<path style=" stroke:none;fill-rule:nonzero;fill:rgb(100%,100%,100%);fill-opacity:1;" d="M 97.59375 116.050781 L 97.59375 123.011719 L 97.601562 123.011719 C 97.597656 124.113281 96.707031 125.011719 95.601562 125.011719 C 94.5 125.011719 93.605469 124.113281 93.605469 123.011719 L 93.609375 123.011719 L 93.609375 116.660156 L 90.28125 116.660156 L 90.28125 123.011719 C 90.28125 125.949219 92.664062 128.332031 95.601562 128.332031 C 98.539062 128.332031 100.921875 125.949219 100.921875 123.011719 L 100.921875 116.050781 L 97.59375 116.050781 "/>
<path style=" stroke:none;fill-rule:nonzero;fill:rgb(30.917358%,29.660034%,29.972839%);fill-opacity:1;" d="M 90.683594 117.0625 L 90.683594 123.011719 C 90.683594 125.722656 92.890625 127.929688 95.601562 127.929688 C 98.316406 127.929688 100.523438 125.722656 100.523438 123.011719 L 100.523438 116.453125 L 97.992188 116.453125 L 98 123.011719 C 97.996094 124.335938 96.921875 125.410156 95.601562 125.410156 C 94.28125 125.410156 93.207031 124.335938 93.207031 123.011719 L 93.210938 117.0625 Z M 95.601562 128.730469 C 92.449219 128.730469 89.882812 126.164062 89.882812 123.011719 L 89.882812 116.261719 L 94.011719 116.261719 L 94.011719 123.136719 C 94.074219 123.960938 94.765625 124.609375 95.601562 124.609375 C 96.441406 124.609375 97.132812 123.957031 97.195312 123.132812 L 97.195312 115.652344 L 101.324219 115.652344 L 101.324219 123.011719 C 101.324219 126.164062 98.757812 128.730469 95.601562 128.730469 "/>
<path style=" stroke:none;fill-rule:nonzero;fill:rgb(100%,100%,100%);fill-opacity:1;" d="M 105.777344 129.480469 L 105.777344 120.191406 L 102.378906 120.191406 L 102.378906 132.683594 L 110.398438 132.683594 L 110.398438 129.480469 L 105.777344 129.480469 "/>
<path style=" stroke:none;fill-rule:nonzero;fill:rgb(30.917358%,29.660034%,29.972839%);fill-opacity:1;" d="M 102.777344 132.28125 L 109.996094 132.28125 L 109.996094 129.878906 L 105.378906 129.878906 L 105.378906 120.589844 L 102.777344 120.589844 Z M 110.796875 133.082031 L 101.980469 133.082031 L 101.980469 119.789062 L 106.179688 119.789062 L 106.179688 129.078125 L 110.796875 129.078125 L 110.796875 133.082031 "/>
<path style=" stroke:none;fill-rule:nonzero;fill:rgb(100%,100%,100%);fill-opacity:1;" d="M 111.71875 125.089844 L 110.601562 125.085938 L 110.597656 123.390625 L 111.726562 123.398438 C 112.234375 123.402344 112.644531 123.769531 112.644531 124.253906 C 112.640625 124.730469 112.226562 125.09375 111.71875 125.089844 Z M 111.570312 118.671875 C 112.097656 118.679688 112.527344 119.0625 112.527344 119.566406 C 112.523438 120.066406 112.089844 120.445312 111.5625 120.441406 L 110.625 120.441406 L 110.625 118.671875 Z M 114.8125 121.566406 C 115.480469 120.992188 115.914062 120.152344 115.914062 119.199219 C 115.914062 117.472656 114.515625 116.070312 112.789062 116.070312 L 107.363281 116.0625 L 107.363281 127.964844 L 113.023438 127.96875 C 114.933594 127.96875 116.480469 126.417969 116.480469 124.511719 C 116.480469 123.257812 115.808594 122.171875 114.8125 121.566406 "/>
<path style=" stroke:none;fill-rule:nonzero;fill:rgb(30.917358%,29.660034%,29.972839%);fill-opacity:1;" d="M 111.023438 120.039062 L 111.5625 120.039062 C 111.882812 120.039062 112.125 119.832031 112.128906 119.5625 C 112.128906 119.292969 111.878906 119.078125 111.5625 119.070312 L 111.023438 119.070312 Z M 111.570312 120.84375 L 110.226562 120.84375 L 110.222656 118.273438 L 111.570312 118.273438 C 112.332031 118.28125 112.925781 118.851562 112.925781 119.566406 C 112.925781 120.28125 112.328125 120.84375 111.570312 120.84375 Z M 111 124.6875 L 111.71875 124.6875 C 112.015625 124.6875 112.242188 124.496094 112.242188 124.25 C 112.242188 124.097656 112.167969 123.996094 112.105469 123.941406 C 112.007812 123.851562 111.871094 123.800781 111.722656 123.796875 L 111 123.792969 Z M 111.730469 125.488281 L 110.199219 125.484375 L 110.195312 122.988281 L 111.726562 122.996094 C 112.074219 123 112.402344 123.125 112.644531 123.351562 C 112.90625 123.585938 113.046875 123.90625 113.042969 124.253906 C 113.035156 124.945312 112.460938 125.488281 111.730469 125.488281 Z M 107.761719 127.566406 L 113.023438 127.566406 C 114.710938 127.566406 116.082031 126.195312 116.082031 124.511719 C 116.082031 123.441406 115.527344 122.46875 114.601562 121.90625 L 114.128906 121.617188 L 114.550781 121.261719 C 115.164062 120.738281 115.515625 119.984375 115.515625 119.199219 C 115.515625 117.695312 114.292969 116.472656 112.789062 116.472656 L 107.761719 116.460938 Z M 113.023438 128.367188 L 106.964844 128.363281 L 106.964844 115.660156 L 112.792969 115.671875 C 114.734375 115.671875 116.316406 117.253906 116.316406 119.199219 C 116.316406 120.054688 116 120.871094 115.433594 121.511719 C 116.347656 122.242188 116.882812 123.332031 116.882812 124.511719 C 116.882812 126.640625 115.152344 128.367188 113.023438 128.367188 "/>
<path style=" stroke:none;fill-rule:nonzero;fill:rgb(100%,100%,100%);fill-opacity:1;" d="M 103.414062 118.429688 C 102.105469 118.429688 101.042969 117.367188 101.042969 116.058594 C 101.042969 114.75 102.105469 113.6875 103.414062 113.6875 C 103.863281 113.6875 104.28125 113.820312 104.640625 114.039062 L 106.433594 111.085938 C 105.554688 110.550781 104.519531 110.234375 103.414062 110.234375 C 100.199219 110.234375 97.59375 112.84375 97.59375 116.058594 C 97.59375 119.277344 100.199219 121.882812 103.414062 121.882812 C 106.628906 121.882812 109.238281 119.277344 109.238281 116.058594 L 105.78125 116.058594 C 105.78125 117.367188 104.722656 118.429688 103.414062 118.429688 "/>
<path style=" stroke:none;fill-rule:nonzero;fill:rgb(30.917358%,29.660034%,29.972839%);fill-opacity:1;" d="M 103.414062 110.636719 C 100.425781 110.636719 97.992188 113.066406 97.992188 116.058594 C 97.992188 119.046875 100.425781 121.480469 103.414062 121.480469 C 106.269531 121.480469 108.617188 119.261719 108.824219 116.460938 L 106.152344 116.460938 C 105.960938 117.796875 104.804688 118.832031 103.414062 118.832031 C 101.886719 118.832031 100.644531 117.585938 100.644531 116.058594 C 100.644531 114.53125 101.886719 113.285156 103.414062 113.285156 C 103.78125 113.285156 104.148438 113.363281 104.492188 113.511719 L 105.875 111.234375 C 105.113281 110.84375 104.269531 110.636719 103.414062 110.636719 Z M 103.414062 122.28125 C 99.984375 122.28125 97.191406 119.488281 97.191406 116.058594 C 97.191406 112.628906 99.984375 109.835938 103.414062 109.835938 C 104.550781 109.835938 105.664062 110.152344 106.640625 110.742188 L 106.980469 110.953125 L 104.773438 114.589844 L 104.433594 114.382812 C 104.117188 114.1875 103.765625 114.089844 103.414062 114.089844 C 102.328125 114.089844 101.441406 114.972656 101.441406 116.058594 C 101.441406 117.144531 102.328125 118.027344 103.414062 118.027344 C 104.5 118.027344 105.382812 117.144531 105.382812 116.058594 L 105.382812 115.65625 L 109.636719 115.65625 L 109.636719 116.058594 C 109.636719 119.488281 106.847656 122.28125 103.414062 122.28125 "/>
<path style=" stroke:none;fill-rule:nonzero;fill:rgb(30.917358%,29.660034%,29.972839%);fill-opacity:1;" d="M 23.484375 112.898438 C 22.765625 112.03125 21.804688 111.578125 20.367188 111.578125 L 17.214844 111.578125 L 17.214844 125.5 L 20.367188 125.5 C 21.804688 125.5 22.765625 125.050781 23.484375 124.179688 C 24.265625 123.21875 24.386719 121.691406 24.386719 118.449219 C 24.386719 115.210938 24.265625 113.859375 23.484375 112.898438 Z M 26.394531 127.179688 C 24.984375 128.589844 22.976562 129.21875 20.757812 129.21875 L 13.046875 129.21875 L 13.046875 107.859375 L 20.757812 107.859375 C 22.976562 107.859375 24.984375 108.488281 26.394531 109.898438 C 28.796875 112.300781 28.554688 115.238281 28.554688 118.449219 C 28.554688 121.660156 28.796875 124.78125 26.394531 127.179688 "/>
<path style=" stroke:none;fill-rule:nonzero;fill:rgb(30.917358%,29.660034%,29.972839%);fill-opacity:1;" d="M 39.054688 116.917969 C 36.714844 116.917969 36.414062 118.839844 36.414062 121.390625 C 36.414062 123.941406 36.714844 125.890625 39.054688 125.890625 C 41.394531 125.890625 41.695312 123.941406 41.695312 121.390625 C 41.695312 118.839844 41.394531 116.917969 39.054688 116.917969 Z M 44.003906 127.988281 C 43.136719 128.859375 41.726562 129.398438 40.195312 129.398438 C 38.605469 129.398438 37.4375 128.980469 36.414062 127.839844 L 36.414062 134.949219 L 32.515625 134.949219 L 32.515625 113.589844 L 36.296875 113.589844 L 36.296875 115.058594 C 37.375 113.859375 38.546875 113.410156 40.195312 113.410156 C 41.726562 113.410156 43.136719 113.949219 44.003906 114.820312 C 45.566406 116.378906 45.597656 119.050781 45.597656 121.390625 C 45.597656 123.730469 45.566406 126.429688 44.003906 127.988281 "/>
<path style=" stroke:none;fill-rule:nonzero;fill:rgb(30.917358%,29.660034%,29.972839%);fill-opacity:1;" d="M 54.207031 129.21875 C 51.027344 129.21875 49.675781 126.96875 49.675781 124.75 L 49.675781 117.011719 L 48.027344 117.011719 L 48.027344 114.039062 L 49.675781 114.039062 L 49.675781 109.417969 L 53.574219 109.417969 L 53.574219 114.039062 L 56.335938 114.039062 L 56.335938 117.011719 L 53.574219 117.011719 L 53.574219 124.511719 C 53.574219 125.410156 53.996094 125.917969 54.925781 125.917969 L 56.335938 125.917969 L 56.335938 129.21875 L 54.207031 129.21875 "/>
<path style=" stroke:none;fill-rule:nonzero;fill:rgb(30.917358%,29.660034%,29.972839%);fill-opacity:1;" d="M 148.925781 129.300781 L 153.0625 129.300781 L 153.0625 108.105469 L 148.925781 108.105469 Z "/>
<path style=" stroke:none;fill-rule:nonzero;fill:rgb(30.917358%,29.660034%,29.972839%);fill-opacity:1;" d="M 166.875 129.300781 L 166.875 119.921875 C 166.875 117.8125 165.535156 117.097656 164.3125 117.097656 C 163.09375 117.097656 161.722656 117.8125 161.722656 119.921875 L 161.722656 129.300781 L 157.855469 129.300781 L 157.855469 113.792969 L 161.636719 113.792969 L 161.636719 115.222656 C 162.644531 114.148438 164.074219 113.613281 165.503906 113.613281 C 167.054688 113.613281 168.304688 114.117188 169.164062 114.984375 C 170.417969 116.234375 170.742188 117.691406 170.742188 119.390625 L 170.742188 129.300781 L 166.875 129.300781 "/>
<path style=" stroke:none;fill-rule:nonzero;fill:rgb(30.917358%,29.660034%,29.972839%);fill-opacity:1;" d="M 179.402344 117.1875 L 179.402344 129.300781 L 175.53125 129.300781 L 175.53125 117.1875 L 173.925781 117.1875 L 173.925781 114.238281 L 175.53125 114.238281 L 175.53125 112.304688 C 175.53125 110.101562 176.902344 107.867188 180.058594 107.867188 L 182.261719 107.867188 L 182.261719 111.144531 L 180.742188 111.144531 C 179.820312 111.144531 179.402344 111.648438 179.402344 112.539062 L 179.402344 114.238281 L 182.261719 114.238281 L 182.261719 117.1875 L 179.402344 117.1875 "/>
<path style=" stroke:none;fill-rule:nonzero;fill:rgb(30.917358%,29.660034%,29.972839%);fill-opacity:1;" d="M 192.617188 117.78125 C 192.171875 117.335938 191.574219 117.097656 190.800781 117.097656 C 190.027344 117.097656 189.460938 117.335938 189.015625 117.78125 C 188.210938 118.585938 188.121094 119.921875 188.121094 121.53125 C 188.121094 123.140625 188.210938 124.507812 189.015625 125.3125 C 189.460938 125.757812 190.027344 125.996094 190.800781 125.996094 C 191.574219 125.996094 192.171875 125.757812 192.617188 125.3125 C 193.421875 124.507812 193.507812 123.140625 193.507812 121.53125 C 193.507812 119.921875 193.421875 118.585938 192.617188 117.78125 Z M 195.621094 127.574219 C 194.671875 128.585938 193.09375 129.480469 190.800781 129.480469 C 188.507812 129.480469 186.960938 128.585938 186.007812 127.574219 C 184.609375 126.117188 184.25 124.359375 184.25 121.53125 C 184.25 118.734375 184.609375 116.976562 186.007812 115.519531 C 186.960938 114.507812 188.507812 113.613281 190.800781 113.613281 C 193.09375 113.613281 194.671875 114.507812 195.621094 115.519531 C 197.019531 116.976562 197.378906 118.734375 197.378906 121.53125 C 197.378906 124.359375 197.019531 126.117188 195.621094 127.574219 "/>
<path style=" stroke:none;fill-rule:nonzero;fill:rgb(30.917358%,29.660034%,29.972839%);fill-opacity:1;" d="M 209.640625 118.019531 C 209.046875 117.421875 208.539062 117.097656 207.585938 117.097656 C 206.394531 117.097656 205.085938 117.988281 205.085938 119.953125 L 205.085938 129.300781 L 201.214844 129.300781 L 201.214844 113.792969 L 204.996094 113.792969 L 204.996094 115.28125 C 205.742188 114.386719 207.230469 113.613281 208.894531 113.613281 C 210.414062 113.613281 211.484375 114 212.558594 115.070312 L 209.640625 118.019531 "/>
<path style=" stroke:none;fill-rule:nonzero;fill:rgb(30.917358%,29.660034%,29.972839%);fill-opacity:1;" d="M 232.945312 129.300781 L 232.945312 119.921875 C 232.945312 117.8125 231.605469 117.097656 230.386719 117.097656 C 229.195312 117.097656 227.796875 117.8125 227.796875 119.835938 L 227.796875 129.300781 L 223.925781 129.300781 L 223.925781 119.921875 C 223.925781 117.8125 222.585938 117.097656 221.367188 117.097656 C 220.144531 117.097656 218.777344 117.8125 218.777344 119.921875 L 218.777344 129.300781 L 214.90625 129.300781 L 214.90625 113.792969 L 218.6875 113.792969 L 218.6875 115.222656 C 219.699219 114.179688 221.128906 113.613281 222.558594 113.613281 C 224.285156 113.613281 225.683594 114.238281 226.664062 115.578125 C 227.976562 114.207031 229.375 113.613281 231.308594 113.613281 C 232.855469 113.613281 234.257812 114.117188 235.121094 114.984375 C 236.371094 116.234375 236.816406 117.691406 236.816406 119.390625 L 236.816406 129.300781 L 232.945312 129.300781 "/>
<path style=" stroke:none;fill-rule:nonzero;fill:rgb(30.917358%,29.660034%,29.972839%);fill-opacity:1;" d="M 248.988281 122.753906 L 245.921875 122.753906 C 244.523438 122.753906 243.746094 123.40625 243.746094 124.507812 C 243.746094 125.582031 244.464844 126.292969 245.980469 126.292969 C 247.054688 126.292969 247.738281 126.207031 248.421875 125.550781 C 248.839844 125.164062 248.988281 124.539062 248.988281 123.585938 Z M 249.078125 129.300781 L 249.078125 127.960938 C 248.035156 129.003906 247.054688 129.449219 245.265625 129.449219 C 243.511719 129.449219 242.230469 129.003906 241.308594 128.082031 C 240.472656 127.21875 240.027344 125.96875 240.027344 124.597656 C 240.027344 122.128906 241.722656 120.101562 245.324219 120.101562 L 248.988281 120.101562 L 248.988281 119.328125 C 248.988281 117.632812 248.152344 116.886719 246.101562 116.886719 C 244.609375 116.886719 243.925781 117.246094 243.121094 118.167969 L 240.652344 115.757812 C 242.171875 114.089844 243.660156 113.613281 246.25 113.613281 C 250.59375 113.613281 252.855469 115.460938 252.855469 119.089844 L 252.855469 129.300781 L 249.078125 129.300781 "/>
<path style=" stroke:none;fill-rule:nonzero;fill:rgb(30.917358%,29.660034%,29.972839%);fill-opacity:1;" d="M 262.023438 129.300781 C 258.867188 129.300781 257.527344 127.070312 257.527344 124.867188 L 257.527344 117.1875 L 255.890625 117.1875 L 255.890625 114.238281 L 257.527344 114.238281 L 257.527344 109.652344 L 261.398438 109.652344 L 261.398438 114.238281 L 264.136719 114.238281 L 264.136719 117.1875 L 261.398438 117.1875 L 261.398438 124.628906 C 261.398438 125.519531 261.816406 126.027344 262.738281 126.027344 L 264.136719 126.027344 L 264.136719 129.300781 L 262.023438 129.300781 "/>
<path style=" stroke:none;fill-rule:nonzero;fill:rgb(30.917358%,29.660034%,29.972839%);fill-opacity:1;" d="M 267.796875 129.300781 L 267.796875 113.792969 L 271.664062 113.792969 L 271.664062 129.300781 Z M 267.734375 111.144531 L 267.734375 107.984375 L 271.695312 107.984375 L 271.695312 111.144531 L 267.734375 111.144531 "/>
<path style=" stroke:none;fill-rule:nonzero;fill:rgb(30.917358%,29.660034%,29.972839%);fill-opacity:1;" d="M 281.964844 117.097656 C 279.644531 117.097656 279.347656 119 279.347656 121.53125 C 279.347656 124.0625 279.644531 125.996094 281.964844 125.996094 C 284.285156 125.996094 284.613281 124.0625 284.613281 121.53125 C 284.613281 119 284.285156 117.097656 281.964844 117.097656 Z M 284.613281 134.988281 L 284.613281 127.933594 C 283.601562 129.0625 282.410156 129.480469 280.835938 129.480469 C 279.316406 129.480469 277.914062 128.945312 277.054688 128.082031 C 275.503906 126.53125 275.476562 123.855469 275.476562 121.53125 C 275.476562 119.210938 275.503906 116.5625 277.054688 115.011719 C 277.914062 114.148438 279.347656 113.613281 280.863281 113.613281 C 282.5 113.613281 283.632812 114.058594 284.703125 115.25 L 284.703125 113.792969 L 288.484375 113.792969 L 288.484375 134.988281 L 284.613281 134.988281 "/>
<path style=" stroke:none;fill-rule:nonzero;fill:rgb(30.917358%,29.660034%,29.972839%);fill-opacity:1;" d="M 301.90625 129.300781 L 301.90625 127.871094 C 300.894531 128.945312 299.464844 129.480469 298.035156 129.480469 C 296.488281 129.480469 295.238281 128.976562 294.375 128.109375 C 293.125 126.859375 292.796875 125.402344 292.796875 123.707031 L 292.796875 113.792969 L 296.667969 113.792969 L 296.667969 123.167969 C 296.667969 125.28125 298.007812 125.996094 299.226562 125.996094 C 300.449219 125.996094 301.816406 125.28125 301.816406 123.167969 L 301.816406 113.792969 L 305.6875 113.792969 L 305.6875 129.300781 L 301.90625 129.300781 "/>
<g clip-path="url(#clip2)" clip-rule="nonzero">
<path style=" stroke:none;fill-rule:nonzero;fill:rgb(30.917358%,29.660034%,29.972839%);fill-opacity:1;" d="M 318.753906 118.4375 C 318.335938 117.511719 317.472656 116.828125 316.164062 116.828125 C 314.851562 116.828125 313.988281 117.511719 313.574219 118.4375 C 313.335938 119 313.246094 119.417969 313.214844 120.101562 L 319.109375 120.101562 C 319.078125 119.417969 318.992188 119 318.753906 118.4375 Z M 313.214844 122.753906 C 313.214844 124.746094 314.4375 126.207031 316.609375 126.207031 C 318.308594 126.207031 319.140625 125.730469 320.121094 124.746094 L 322.472656 127.039062 C 320.894531 128.617188 319.378906 129.480469 316.578125 129.480469 C 312.917969 129.480469 309.40625 127.8125 309.40625 121.53125 C 309.40625 116.472656 312.144531 113.613281 316.164062 113.613281 C 320.480469 113.613281 322.921875 116.769531 322.921875 121.027344 L 322.921875 122.753906 L 313.214844 122.753906 "/>
</g>
</g>
</svg>
